<svg xmlns="http://www.w3.org/2000/svg" version="1.1" xmlns:xlink="http://www.w3.org/1999/xlink" xmlns:svgjs="http://svgjs.dev/svgjs" width="1000" height="625" viewBox="0 0 1000 625"><g transform="matrix(1,0,0,1,0,0)"><svg viewBox="0 0 512 320" data-background-color="#ffffff" preserveAspectRatio="xMidYMid meet" height="625" width="1000" xmlns="http://www.w3.org/2000/svg" xmlns:xlink="http://www.w3.org/1999/xlink"><g id="tight-bounds" transform="matrix(1,0,0,1,0,0)"><svg viewBox="0 0 512 320" height="320" width="512"><g><svg></svg></g><g><svg viewBox="0 0 512 320" height="320" width="512"><g><path xmlns="http://www.w3.org/2000/svg" d="M96 160c0-88.366 71.634-160 160-160 88.366 0 160 71.634 160 160 0 88.366-71.634 160-160 160-88.366 0-160-71.634-160-160z" fill="#0063db" fill-rule="nonzero" stroke="none" stroke-width="1" stroke-linecap="butt" stroke-linejoin="miter" stroke-miterlimit="10" stroke-dasharray="" stroke-dashoffset="0" font-family="none" font-weight="none" font-size="none" text-anchor="none" style="mix-blend-mode: normal" data-fill-palette-color="tertiary"></path></g><g transform="matrix(1,0,0,1,171.42857142857144,80)"><svg viewBox="0 0 169.14285714285714 160" height="160" width="169.14285714285714"><g><svg viewBox="0 0 169.14285714285714 160" height="160" width="169.14285714285714"><g><svg viewBox="0 0 169.14285714285714 160" height="160" width="169.14285714285714"><g><svg viewBox="0 0 169.14285714285714 160" height="160" width="169.14285714285714"><g id="textblocktransform"><svg viewBox="0 0 169.14285714285714 160" height="160" width="169.14285714285714" id="textblock"><g><svg viewBox="0 0 169.14285714285714 160" height="160" width="169.14285714285714"><g transform="matrix(1,0,0,1,0,0)"><svg width="169.14285714285714" viewBox="2.8499999046325684 -35 37 35" height="160" data-palette-color="#ffffff"><path d="M2.85 0L2.85-35 20.1-35Q25.95-35 30.43-32.88 34.9-30.75 37.38-26.8 39.85-22.85 39.85-17.5L39.85-17.5Q39.85-12.15 37.38-8.2 34.9-4.25 30.43-2.13 25.95 0 20.1 0L20.1 0 2.85 0ZM14.65-9.2L19.6-9.2Q23.4-9.2 25.68-11.38 27.95-13.55 27.95-17.5L27.95-17.5Q27.95-21.45 25.68-23.63 23.4-25.8 19.6-25.8L19.6-25.8 14.65-25.8 14.65-9.2Z" opacity="1" transform="matrix(1,0,0,1,0,0)" fill="#ffffff" class="wordmark-text-0" data-fill-palette-color="quaternary" id="text-0"></path></svg></g></svg></g></svg></g></svg></g><g></g></svg></g></svg></g></svg></g></svg></g><defs></defs></svg><rect width="512" height="320" fill="none" stroke="none" visibility="hidden"></rect></g></svg></g></svg>